# xmcd CD database file
#
# Track frame offsets:
#	150
#	16586
#	32636
#	53020
#	63680
#	78431
#	97687
#	108149
#	121641
#	136325
#	155543
#	168586
#	187563
#	200605
#	213215
#	225904
#	245067
#	262961
#	272824
#	289033
#	303310
#	315818
#	331481
#
# Disc length: 4638 seconds
#
# Revision: 1
# Processed by: cddbd v1.5.1PL0 Copyright (c) Steve Scherf et al.
# Submitted via: CDex 1.51
#
DISCID=21121c17
DTITLE=Various Artist - Country duety
DYEAR=2003
DGENRE=Country
TTITLE0=Vera Martinova and Mirek Matousek - Pojd me krasne hrat
TTITLE1=Helena Marsalkova and Frantisek Nedved - Laredo
TTITLE2=Pavel Bobek and Karel Zich - Bowery Street
TTITLE3=Jan a Frantisek Nedvedovi - Pojd devce
TTITLE4=Jitka Vrbova and Tony Brych - Jak vis
TTITLE5=Milena Soukupova and Leos Petru - Kdyby nam vladli andele
TTITLE6=Helena Marsalkova and Tony Linhart - Votrhanej chlap
TTITLE7=Milena Voborska and Frantisek Nedved - Kruta valka
TTITLE8=Lenka Zazvorkova and Tony Linhart - Texaska patrola
TTITLE9=Stana and Frank - Nebudeme doma
TTITLE10=Jan Vycital and Wabi Ryvola - Tahnu se jak testo strudlu
TTITLE11=Helena Marsalkova and Josef Blazejovsky - Dzinova laska
TTITLE12=Ivan Mladek and Jan Mrazek - U Karlovych Var
TTITLE13=Bea Psenickova and Pavel Lukes - Az pujdes spat
TTITLE14=Josef Zoch and Schovanky - Tam kam vlaky dojedou
TTITLE15=Jitka Zelenkova and Karel Zich - Nejde zapomenout
TTITLE16=Jitka Vrbova and Helena Marsalkova - Zase praska v krbu drivi
TTITLE17=Tony Linhart and Wabi Ryvola - Pikovicky pacifik
TTITLE18=Helena Marsalkova and Pavel Travnicek - Princove
TTITLE19=Stana and Frank - Je to fajn
TTITLE20=Eda and Eda - Stechovicky valcik
TTITLE21=Milena Soukupova and Lubomir Zalubil - Pojd se mnou dal
TTITLE22=Tony Brych and Tony Linhart - Dobra i spatna
EXTD=YEAR: 2003
EXTT0=
EXTT1=
EXTT2=
EXTT3=
EXTT4=
EXTT5=
EXTT6=
EXTT7=
EXTT8=
EXTT9=
EXTT10=
EXTT11=
EXTT12=
EXTT13=
EXTT14=
EXTT15=
EXTT16=
EXTT17=
EXTT18=
EXTT19=
EXTT20=
EXTT21=
EXTT22=
PLAYORDER=
